<svg width="1024" height="1024" viewBox="0 0 1024 1024" fill="none" xmlns="http://www.w3.org/2000/svg">
<path d="M416.441 757.615C416.441 743.789 416.441 736.875 417.748 731.127C423.116 707.518 444.211 689.065 471.195 684.369C477.767 683.224 485.668 683.224 501.474 683.224C517.279 683.224 525.181 683.224 531.75 684.369C558.738 689.065 579.832 707.518 585.2 731.127C586.507 736.875 586.507 743.789 586.507 757.615V782.412C586.507 800.95 586.507 810.221 581.949 817.126C578.964 821.651 574.67 825.405 569.499 828.017C561.606 832.004 551.012 832.004 529.817 832.004H473.13C451.937 832.004 441.34 832.004 433.448 828.017C428.277 825.405 423.983 821.651 420.998 817.126C416.441 810.221 416.441 800.95 416.441 782.412V757.615Z" fill="#EFA658" style="fill:#EFA658;fill:color(display-p3 0.9373 0.6510 0.3451);fill-opacity:1;"/>
<path d="M289.05 831.997H347.324C353.921 831.997 357.22 831.997 358.922 830.162C360.623 828.327 359.91 825.369 358.485 819.45C321.915 562.598 579.009 643.282 599.421 477.718C613.403 364.308 539.35 362.94 567.238 208.353C567.64 198.738 567.842 193.93 564.871 192.44C561.898 190.95 557.606 193.341 549.02 198.122C427.732 265.661 339.343 394.769 371.647 473.983C376.585 486.093 379.054 492.147 375.931 494.358C372.809 496.57 367.525 493.718 356.957 488.017C339.773 478.749 319.351 463.574 305.155 439.665C300.99 432.651 298.907 429.142 295.852 428.878C292.796 428.613 290.171 431.473 284.92 437.19C132.309 603.361 194.152 769.306 282.295 829.999C283.701 830.966 284.405 831.452 285.306 831.724C286.207 831.997 287.155 831.997 289.05 831.997Z" fill="#EFA658" style="fill:#EFA658;fill:color(display-p3 0.9373 0.6510 0.3451);fill-opacity:1;"/>
<path d="M666.852 442.105C675.043 514.663 619.988 595.109 557.104 629.49C546.126 635.491 540.637 638.492 541.111 641.351C541.586 644.21 548.147 646.062 561.267 649.765C645.113 673.43 668.7 755.038 641.981 821.86C641.571 826.625 641.365 829.008 643.129 830.504C644.89 832 647.886 832 653.875 832H706.25C707.836 832 708.63 832 709.399 831.833C710.168 831.666 710.849 831.349 712.211 830.711C907.953 719.118 838.526 526.102 684.619 433.039C676.27 427.991 672.095 425.468 668.7 426.952C665.308 428.439 665.823 432.994 666.852 442.105Z" fill="#EFA658" style="fill:#EFA658;fill:color(display-p3 0.9373 0.6510 0.3451);fill-opacity:1;"/>
</svg>