<svg width="902" height="179" viewBox="0 0 902 179" fill="none" xmlns="http://www.w3.org/2000/svg">
<path d="M7.83496 37.7295H50.8232C58.0804 37.7295 64.7135 38.8389 70.7227 41.0576C76.7318 43.2301 81.932 46.4196 86.3232 50.626C90.7607 54.8324 94.2044 60.2174 96.6543 66.7812C99.1504 73.2988 100.398 80.7178 100.398 89.0381C100.398 99.0225 98.2952 107.897 94.0889 115.663C89.8825 123.382 84.012 129.368 76.4775 133.621C68.943 137.874 60.3454 140 50.6846 140H7.83496V137.157L20.5928 132.165V45.5645L7.83496 40.5723V37.7295ZM49.8525 45.1484H34.1133V132.65H50.2686C54.9372 132.65 59.3747 131.749 63.5811 129.946C67.8337 128.144 71.6009 125.532 74.8828 122.111C78.2109 118.691 80.8457 114.253 82.7871 108.799C84.7747 103.344 85.7686 97.2197 85.7686 90.4248C85.7686 75.8643 82.6484 64.6781 76.4082 56.8662C70.168 49.0544 61.3161 45.1484 49.8525 45.1484ZM175.351 106.372H138.741L128.618 133.482L140.267 137.157V140H107.193V137.157L119.258 132.165L155.451 37.7295H161.83L198.925 132.165L210.296 137.157V140H174.796V137.157L186.028 133.482L175.351 106.372ZM156.491 58.9463L141.584 98.9531H172.508L157.046 58.9463H156.491ZM208.84 37.7295L210.989 35.9268L224.163 37.7295H278.869L292.043 35.9268L294.192 37.7295V66.4346H291.35L282.683 45.2871L258.554 44.3164V132.165L271.312 137.157V140H233.731V137.157L245.796 132.165V44.3164L220.766 45.4258L211.683 66.4346H208.84V37.7295ZM362.835 106.372H326.226L316.103 133.482L327.751 137.157V140H294.678V137.157L306.742 132.165L342.936 37.7295H349.314L386.409 132.165L397.78 137.157V140H362.28V137.157L373.513 133.482L362.835 106.372ZM343.976 58.9463L329.068 98.9531H359.992L344.53 58.9463H343.976ZM413.104 130.917C420.361 132.72 426.416 133.621 431.27 133.621C433.766 133.621 436.215 133.367 438.619 132.858C441.069 132.304 443.242 131.379 445.137 130.085C447.078 128.791 448.627 127.08 449.782 124.954C450.984 122.782 451.585 120.077 451.585 116.842C451.585 114.715 451.285 112.728 450.684 110.879C450.083 108.984 448.973 107.112 447.355 105.263C445.784 103.414 443.634 101.542 440.907 99.6465C438.18 97.7051 434.69 95.5788 430.438 93.2676C425.815 90.7715 421.817 88.4141 418.442 86.1953C415.114 83.9303 412.341 81.596 410.122 79.1924C407.95 76.7887 406.332 74.2002 405.269 71.4268C404.252 68.6533 403.743 65.487 403.743 61.9277C403.743 44.5013 414.629 35.7881 436.4 35.7881C444.12 35.7881 452.255 36.8743 460.807 39.0469V63.0371H457.964L450.476 45.4258C445.576 44.4089 441.161 43.9004 437.232 43.9004C430.622 43.9004 425.468 45.1715 421.771 47.7139C418.073 50.21 416.224 54.0928 416.224 59.3623C416.224 61.2113 416.478 62.9678 416.986 64.6318C417.495 66.2959 418.535 68.0293 420.106 69.832C421.678 71.6348 423.897 73.5531 426.763 75.5869C429.629 77.6208 433.396 79.932 438.064 82.5205C442.687 85.0166 446.708 87.3278 450.129 89.4541C453.596 91.5804 456.462 93.776 458.727 96.041C460.992 98.2598 462.679 100.687 463.788 103.321C464.944 105.956 465.521 109.007 465.521 112.474C465.521 118.021 464.597 122.666 462.748 126.41C460.899 130.108 458.403 133.113 455.26 135.424C452.163 137.689 448.534 139.307 444.374 140.277C440.214 141.248 435.846 141.733 431.27 141.733C428.589 141.733 426.092 141.641 423.781 141.456C421.516 141.317 419.274 141.063 417.056 140.693C414.837 140.37 412.572 139.931 410.261 139.376C407.95 138.775 405.43 138.082 402.703 137.296V112.335H406.309L413.104 130.917ZM559.056 132.165V91.7422H507.4V132.165L520.158 137.157V140H481.815V137.157L493.88 132.165V45.5645L481.122 40.5723V37.7295H519.465V40.5723L507.4 45.5645V84.3232H559.056V45.5645L546.298 40.5723V37.7295H583.185V40.2949L572.576 45.5645V132.165L585.334 137.157V140H546.991V137.157L559.056 132.165ZM661.118 106.372H624.509L614.386 133.482L626.034 137.157V140H592.961V137.157L605.025 132.165L641.219 37.7295H647.598L684.692 132.165L696.063 137.157V140H660.563V137.157L671.796 133.482L661.118 106.372ZM642.259 58.9463L627.352 98.9531H658.275L642.813 58.9463H642.259ZM768.312 140L746.471 97.1504C745.13 97.3353 743.743 97.474 742.311 97.5664C740.924 97.6589 739.491 97.7051 738.012 97.7051C736.301 97.7051 734.545 97.6357 732.742 97.4971C730.986 97.3584 729.16 97.1735 727.265 96.9424V132.165L742.935 137.157V140H701.749V137.157L714.507 132.165V45.5645L701.749 40.5723V37.7295H740.785C746.794 37.7295 752.133 38.4229 756.802 39.8096C761.47 41.1501 765.399 43.0684 768.589 45.5645C771.825 48.0605 774.274 51.0651 775.938 54.5781C777.603 58.0449 778.435 61.9046 778.435 66.1572C778.435 72.3975 776.817 77.9443 773.581 82.7979C770.392 87.6051 765.654 91.2799 759.367 93.8223L779.544 133.205L789.736 137.157V140H768.312ZM742.796 45.0098H727.265V89.5928C729.16 89.8239 730.939 90.0088 732.604 90.1475C734.314 90.2399 735.978 90.2861 737.596 90.2861C755.438 90.2861 764.359 82.613 764.359 67.2666C764.359 59.8245 762.51 54.2546 758.812 50.5566C755.115 46.8587 749.776 45.0098 742.796 45.0098ZM801.87 37.7295H844.858C852.116 37.7295 858.749 38.8389 864.758 41.0576C870.767 43.2301 875.967 46.4196 880.358 50.626C884.796 54.8324 888.24 60.2174 890.689 66.7812C893.186 73.2988 894.434 80.7178 894.434 89.0381C894.434 99.0225 892.33 107.897 888.124 115.663C883.918 123.382 878.047 129.368 870.513 133.621C862.978 137.874 854.381 140 844.72 140H801.87V137.157L814.628 132.165V45.5645L801.87 40.5723V37.7295ZM843.888 45.1484H828.148V132.65H844.304C848.972 132.65 853.41 131.749 857.616 129.946C861.869 128.144 865.636 125.532 868.918 122.111C872.246 118.691 874.881 114.253 876.822 108.799C878.81 103.344 879.804 97.2197 879.804 90.4248C879.804 75.8643 876.684 64.6781 870.443 56.8662C864.203 49.0544 855.351 45.1484 843.888 45.1484Z" 
/>
</svg>
