<svg width="1771" height="495" viewBox="0 0 1771 495" fill="none" xmlns="http://www.w3.org/2000/svg">
<path d="M1231.13 0.211914C1237.87 8.02429 1245.02 16.2588 1252.59 24.9154C1260.37 33.5991 1268.63 42.1892 1277.38 50.6856C1286.21 59.2988 1295.61 67.6703 1305.55 75.8003C1315.62 83.8407 1326.46 91.1957 1338.07 97.8653C1349.79 104.445 1362.33 110.03 1375.69 114.621C1389.04 119.211 1403.36 122.407 1418.66 124.21C1430.65 125.578 1443.62 125.92 1457.56 125.236C1471.59 124.669 1486.24 123.344 1501.52 121.262C1516.92 119.09 1532.71 116.341 1548.89 113.013C1565.06 109.685 1581.28 106.047 1597.54 102.1C1613.8 98.1536 1629.88 93.9733 1645.79 89.5596C1661.8 85.0562 1677.18 80.6777 1691.9 76.4241C1706.75 72.081 1720.83 67.9522 1734.14 64.0379C1747.67 60.1508 1759.93 56.6749 1770.93 53.6102C1756.1 58.689 1739.34 64.4071 1720.67 70.7645C1702.08 77.2385 1682.81 84.1469 1662.85 91.4896C1642.98 98.949 1623.05 106.821 1603.07 115.106C1583.09 123.39 1564.33 132.044 1546.77 141.067C1529.21 150.09 1513.41 159.344 1499.36 168.828C1485.51 178.34 1474.63 188.084 1466.71 198.059C1460.06 206.314 1455.43 214.782 1452.82 223.463C1450.41 232.171 1449.46 240.966 1449.97 249.848C1450.57 258.847 1452.44 267.802 1455.57 276.714C1458.7 285.625 1462.58 294.426 1467.21 303.115C1471.95 311.715 1477.19 320.117 1482.94 328.323C1488.68 336.529 1494.46 344.426 1500.28 352.013C1506.55 360.184 1513.09 368.337 1519.89 376.472C1512.71 368.812 1505.1 360.465 1497.05 351.431C1489.01 342.397 1480.36 333.178 1471.1 323.775C1462.05 314.399 1452.29 305.193 1441.84 296.156C1431.47 287.236 1420.37 279.06 1408.54 271.628C1396.93 264.223 1384.44 257.857 1371.08 252.531C1357.92 247.233 1343.87 243.548 1328.93 241.476C1319.44 240.228 1304.87 240.933 1285.21 243.594C1265.55 246.254 1242.29 250.381 1215.42 255.976C1188.64 261.687 1158.88 268.579 1126.13 276.652C1093.46 284.841 1059.13 293.756 1023.13 303.395C987.331 313.061 950.629 323.238 913.019 333.925C875.526 344.522 838.459 355.071 801.819 365.57C765.151 376.276 729.731 386.674 695.558 396.764C661.358 407.06 629.738 416.489 600.698 425.05C571.631 433.818 545.849 441.549 523.351 448.243C500.736 455.026 482.784 460.272 469.494 463.98C482.363 459.482 499.94 453.505 522.223 446.048C544.39 438.681 569.738 430.263 598.267 420.795C626.797 411.327 657.848 401.036 691.421 389.923C724.994 378.81 759.577 367.2 795.17 355.094C830.735 343.193 866.593 331.069 902.742 318.721C939.008 306.283 974.098 294.005 1008.01 281.888C1042.05 269.681 1074.14 257.848 1104.29 246.39C1134.66 234.96 1161.61 224.288 1185.16 214.374C1208.92 204.488 1228.57 195.53 1244.11 187.501C1259.85 179.499 1270.12 172.822 1274.92 167.472C1283.03 158.465 1288.44 149.209 1291.16 139.703C1294 130.107 1294.79 120.504 1293.54 110.895C1292.4 101.196 1289.69 91.4996 1285.4 81.8061C1281.21 72.2293 1276.16 62.7502 1270.26 53.3689C1264.35 43.9875 1257.9 34.8478 1250.88 25.9496C1243.98 16.9618 1237.4 8.3826 1231.13 0.211914Z" fill="#252525"/>
<path d="M147.071 373.711C146.239 375.976 145.153 378.333 143.813 380.783C142.518 383.233 141.039 385.475 139.375 387.509C137.711 389.543 135.885 391.207 133.898 392.501C131.91 393.795 129.807 394.442 127.588 394.442H6.87416C4.65541 394.442 3.01446 393.795 1.95131 392.501C0.934384 391.207 0.310361 389.543 0.0792411 387.509C-0.105655 385.475 0.0330171 383.233 0.495257 380.783C1.00372 378.333 1.67397 375.976 2.506 373.711L50.2785 242.389C51.1105 240.077 52.1736 237.72 53.4679 235.316C54.8084 232.867 56.3107 230.625 57.9748 228.591C59.6388 226.557 61.4647 224.893 63.4523 223.599C65.4399 222.304 67.5431 221.657 69.7619 221.657H123.913C126.132 221.657 128.235 221.01 130.223 219.716C132.21 218.422 134.036 216.781 135.7 214.793C137.364 212.759 138.844 210.517 140.138 208.067C141.432 205.618 142.495 203.26 143.327 200.995C144.298 198.268 145.523 195.448 147.002 192.536C148.481 189.624 150.145 186.804 151.994 184.077C153.843 181.304 155.854 178.692 158.027 176.242C160.199 173.792 162.487 171.666 164.891 169.863L228.333 122.299C229.304 121.513 230.321 120.82 231.384 120.219C232.493 119.618 233.533 119.317 234.504 119.317C235.66 119.317 236.399 119.803 236.723 120.773C237.046 121.744 237.139 122.923 237 124.31C236.861 125.696 236.561 127.152 236.099 128.678C235.683 130.157 235.29 131.405 234.92 132.422L147.071 373.711ZM128.281 226.719C127.264 226.719 126.271 227.042 125.3 227.689C124.375 228.29 123.497 229.076 122.665 230.047C121.879 231.018 121.163 232.081 120.516 233.236C119.915 234.392 119.429 235.501 119.06 236.564L66.7111 380.367C66.2951 381.477 65.9715 382.609 65.7404 383.765C65.5093 384.92 65.4399 385.983 65.5324 386.954C65.6248 387.925 65.9253 388.734 66.4337 389.381C66.9422 389.982 67.7049 390.282 68.7218 390.282C69.785 390.282 70.7788 389.982 71.7033 389.381C72.674 388.734 73.5522 387.925 74.338 386.954C75.1238 385.983 75.8172 384.92 76.4181 383.765C77.0652 382.609 77.5968 381.477 78.0128 380.367L130.361 236.564C130.731 235.501 131.032 234.392 131.263 233.236C131.494 232.081 131.563 231.018 131.471 230.047C131.378 229.076 131.078 228.29 130.569 227.689C130.107 227.042 129.345 226.719 128.281 226.719Z" fill="#CFCFCF"/>
<path d="M296.976 380.229C296.467 381.661 295.797 383.141 294.965 384.666C294.133 386.191 293.185 387.578 292.122 388.826C291.105 390.074 289.973 391.114 288.725 391.946C287.523 392.732 286.229 393.125 284.842 393.125H155.114C153.728 393.125 152.711 392.732 152.064 391.946C151.416 391.114 151.047 390.305 150.954 389.52C150.908 388.688 150.885 388.11 150.885 387.786C150.885 386.815 151 385.683 151.232 384.389C151.509 383.048 151.902 381.661 152.41 380.229L179.521 305.692C180.029 304.259 180.699 302.78 181.531 301.255C182.363 299.729 183.288 298.343 184.305 297.095C185.368 295.8 186.5 294.76 187.702 293.975C188.95 293.143 190.268 292.727 191.654 292.727H254.75C256.137 292.727 257.431 292.334 258.633 291.548C259.881 290.716 261.013 289.676 262.03 288.428C263.094 287.18 264.041 285.793 264.873 284.268C265.705 282.742 266.375 281.263 266.884 279.83L283.178 234.97C283.594 233.86 283.894 232.82 284.079 231.85C284.264 230.879 284.357 230.024 284.357 229.284C284.357 228.961 284.31 228.498 284.218 227.897C284.172 227.25 283.894 226.626 283.386 226.025C282.924 225.378 282.161 225.055 281.098 225.055C279.388 225.055 277.839 225.817 276.452 227.343C275.066 228.822 273.771 230.81 272.569 233.306C271.368 235.756 270.235 238.552 269.172 241.695C268.109 244.839 267.023 248.074 265.913 251.402C264.85 254.684 263.741 257.897 262.585 261.04C261.43 264.183 260.181 267.003 258.841 269.499C257.5 271.949 256.021 273.937 254.403 275.462C252.786 276.941 250.96 277.681 248.926 277.681H197.132C195.745 277.681 194.728 277.288 194.081 276.502C193.434 275.67 193.064 274.838 192.972 274.006C192.879 273.174 192.833 272.55 192.833 272.134C192.833 271.256 192.949 270.192 193.18 268.944C193.457 267.65 193.85 266.286 194.359 264.854L205.73 233.722C206.238 232.289 206.885 230.81 207.671 229.284C208.503 227.759 209.428 226.372 210.444 225.124C211.508 223.876 212.64 222.859 213.842 222.073C215.09 221.241 216.407 220.825 217.794 220.825H347.522C348.908 220.825 349.925 221.241 350.572 222.073C351.22 222.859 351.589 223.668 351.682 224.5C351.774 225.332 351.82 225.956 351.82 226.372C351.82 227.25 351.682 228.337 351.404 229.631C351.173 230.925 350.804 232.289 350.295 233.722L296.976 380.229ZM221.538 388.688C222.601 388.688 223.595 388.387 224.52 387.786C225.49 387.139 226.369 386.353 227.154 385.429C227.94 384.458 228.634 383.395 229.235 382.239C229.882 381.084 230.413 379.974 230.829 378.911L256.83 307.495C257.2 306.386 257.477 305.346 257.662 304.375C257.847 303.404 257.94 302.595 257.94 301.948C257.94 301.578 257.893 301.093 257.801 300.492C257.755 299.845 257.477 299.221 256.969 298.62C256.507 298.019 255.744 297.719 254.681 297.719C253.664 297.719 252.67 298.019 251.699 298.62C250.775 299.221 249.92 300.007 249.134 300.978C248.348 301.902 247.632 302.942 246.985 304.098C246.384 305.253 245.898 306.386 245.528 307.495L219.527 378.911C219.111 379.974 218.788 381.014 218.557 382.031C218.372 383.002 218.279 383.834 218.279 384.527C218.279 384.851 218.303 385.313 218.349 385.914C218.441 386.515 218.742 387.139 219.25 387.786C219.759 388.387 220.521 388.688 221.538 388.688Z" fill="#CFCFCF"/>
<path d="M452.08 140.812C453.467 140.812 454.484 141.228 455.131 142.06C455.824 142.892 456.24 143.955 456.379 145.249C456.518 146.497 456.448 147.907 456.171 149.479C455.894 151.004 455.478 152.506 454.923 153.985L448.821 171.042C448.036 173.261 447.435 175.456 447.019 177.629C446.603 179.801 446.51 181.743 446.741 183.453C447.019 185.163 447.643 186.55 448.613 187.613C449.63 188.676 488.156 189.208 490.19 189.208C490.744 189.208 491.16 189.37 491.438 189.693C491.715 190.017 491.877 190.433 491.923 190.941C491.969 191.45 491.946 192.028 491.854 192.675C491.761 193.276 491.599 193.877 491.368 194.478C491.091 195.31 490.721 196.142 490.259 196.974C489.797 197.806 489.265 198.568 488.664 199.262C488.11 199.909 487.486 200.464 486.792 200.926C486.145 201.342 485.429 201.55 484.643 201.55L444.731 201.48C443.39 201.48 442.119 201.85 440.917 202.59C439.762 203.329 438.675 204.3 437.658 205.502C436.688 206.658 435.809 207.975 435.024 209.454C434.284 210.887 433.66 212.297 433.152 213.684L359.309 416.63C358.153 419.773 356.697 423.055 354.941 426.476C353.184 429.942 351.196 433.294 348.978 436.529C346.759 439.765 344.355 442.793 341.767 445.612C339.178 448.432 336.474 450.812 333.654 452.754L277.908 491.443C276.753 492.229 275.574 492.923 274.372 493.523C273.124 494.124 271.969 494.425 270.905 494.425C269.426 494.425 268.479 493.824 268.063 492.622C267.647 491.466 267.508 490.034 267.647 488.323C267.785 486.659 268.132 484.903 268.687 483.054C269.195 481.251 269.68 479.702 270.143 478.408L389.123 151.628C389.539 150.426 390.094 149.178 390.787 147.884C391.481 146.59 392.243 145.434 393.075 144.417C393.954 143.354 394.901 142.499 395.918 141.852C396.981 141.158 398.091 140.812 399.246 140.812H452.08Z" fill="#CFCFCF"/>
<path d="M528.014 380.229C527.506 381.661 526.835 383.141 526.003 384.666C525.171 386.191 524.224 387.578 523.161 388.826C522.144 390.074 521.011 391.114 519.763 391.946C518.561 392.732 517.267 393.125 515.88 393.125H386.153C384.766 393.125 383.749 392.732 383.102 391.946C382.455 391.114 382.085 390.305 381.993 389.52C381.946 388.688 381.923 388.11 381.923 387.786C381.923 386.815 382.039 385.683 382.27 384.389C382.547 383.048 382.94 381.661 383.449 380.229L410.559 305.692C411.068 304.259 411.738 302.78 412.57 301.255C413.402 299.729 414.326 298.343 415.343 297.095C416.406 295.8 417.539 294.76 418.741 293.975C419.989 293.143 421.306 292.727 422.693 292.727H485.789C487.175 292.727 488.47 292.334 489.671 291.548C490.919 290.716 492.052 289.676 493.069 288.428C494.132 287.18 495.08 285.793 495.912 284.268C496.744 282.742 497.414 281.263 497.922 279.83L514.216 234.97C514.632 233.86 514.933 232.82 515.118 231.85C515.303 230.879 515.395 230.024 515.395 229.284C515.395 228.961 515.349 228.498 515.256 227.897C515.21 227.25 514.933 226.626 514.424 226.025C513.962 225.378 513.199 225.055 512.136 225.055C510.426 225.055 508.877 225.817 507.491 227.343C506.104 228.822 504.81 230.81 503.608 233.306C502.406 235.756 501.274 238.552 500.21 241.695C499.147 244.839 498.061 248.074 496.952 251.402C495.889 254.684 494.779 257.897 493.624 261.04C492.468 264.183 491.22 267.003 489.879 269.499C488.539 271.949 487.06 273.937 485.442 275.462C483.824 276.941 481.998 277.681 479.964 277.681H428.17C426.784 277.681 425.767 277.288 425.12 276.502C424.473 275.67 424.103 274.838 424.01 274.006C423.918 273.174 423.872 272.55 423.872 272.134C423.872 271.256 423.987 270.192 424.218 268.944C424.496 267.65 424.889 266.286 425.397 264.854L436.768 233.722C437.277 232.289 437.924 230.81 438.71 229.284C439.542 227.759 440.466 226.372 441.483 225.124C442.546 223.876 443.679 222.859 444.88 222.073C446.128 221.241 447.446 220.825 448.833 220.825H578.56C579.947 220.825 580.964 221.241 581.611 222.073C582.258 222.859 582.628 223.668 582.72 224.5C582.813 225.332 582.859 225.956 582.859 226.372C582.859 227.25 582.72 228.337 582.443 229.631C582.212 230.925 581.842 232.289 581.333 233.722L528.014 380.229ZM452.577 388.688C453.64 388.688 454.634 388.387 455.558 387.786C456.529 387.139 457.407 386.353 458.193 385.429C458.979 384.458 459.672 383.395 460.273 382.239C460.92 381.084 461.452 379.974 461.868 378.911L487.869 307.495C488.238 306.386 488.516 305.346 488.701 304.375C488.886 303.404 488.978 302.595 488.978 301.948C488.978 301.578 488.932 301.093 488.839 300.492C488.793 299.845 488.516 299.221 488.007 298.62C487.545 298.019 486.782 297.719 485.719 297.719C484.702 297.719 483.709 298.019 482.738 298.62C481.813 299.221 480.958 300.007 480.172 300.978C479.387 301.902 478.67 302.942 478.023 304.098C477.422 305.253 476.937 306.386 476.567 307.495L450.566 378.911C450.15 379.974 449.826 381.014 449.595 382.031C449.41 383.002 449.318 383.834 449.318 384.527C449.318 384.851 449.341 385.313 449.387 385.914C449.48 386.515 449.78 387.139 450.289 387.786C450.797 388.387 451.56 388.688 452.577 388.688Z" fill="#CFCFCF"/>
<path d="M610.177 321.986C612.766 321.986 614.684 322.749 615.932 324.274C617.18 325.8 617.92 327.764 618.151 330.168C618.428 332.525 618.29 335.16 617.735 338.072C617.18 340.938 616.417 343.735 615.447 346.462L603.868 378.287C603.452 379.396 603.128 380.529 602.897 381.685C602.712 382.84 602.666 383.903 602.758 384.874C602.897 385.799 603.221 386.561 603.729 387.162C604.237 387.763 605 388.063 606.017 388.063C607.08 388.063 608.074 387.763 608.999 387.162C609.923 386.515 610.778 385.706 611.564 384.735C612.35 383.765 613.043 382.701 613.644 381.546C614.291 380.39 614.8 379.281 615.169 378.218L630.839 335.16C631.856 332.433 632.642 329.613 633.197 326.701C633.751 323.789 633.89 321.154 633.613 318.797C633.382 316.393 632.642 314.429 631.394 312.903C630.146 311.378 628.228 310.615 625.639 310.615H576.203C573.614 310.615 571.696 309.853 570.448 308.327C569.2 306.756 568.437 304.791 568.16 302.434C567.929 300.03 568.09 297.372 568.645 294.46C569.2 291.548 569.962 288.728 570.933 286.001L585.84 244.885C586.811 242.158 588.059 239.361 589.584 236.495C591.156 233.629 592.936 230.994 594.923 228.591C596.911 226.187 599.083 224.223 601.441 222.697C603.798 221.172 606.271 220.409 608.86 220.409H725.136C727.725 220.409 729.643 221.172 730.891 222.697C732.139 224.223 732.879 226.187 733.11 228.591C733.341 230.948 733.179 233.583 732.625 236.495C732.07 239.361 731.307 242.158 730.336 244.885C729.551 247.011 728.672 249.484 727.702 252.304C726.731 255.123 725.622 258.012 724.374 260.971C723.125 263.929 721.739 266.841 720.213 269.707C718.734 272.573 717.047 275.138 715.152 277.403C713.303 279.668 711.246 281.494 708.981 282.881C706.762 284.268 704.312 284.961 701.631 284.961H663.289C660.7 284.961 658.782 284.198 657.534 282.673C656.286 281.101 655.546 279.137 655.315 276.779C655.084 274.376 655.246 271.718 655.8 268.806C656.355 265.894 657.118 263.074 658.088 260.347L667.518 234.346C667.934 233.236 668.258 232.104 668.489 230.948C668.72 229.793 668.789 228.753 668.697 227.828C668.604 226.857 668.304 226.072 667.795 225.471C667.333 224.87 666.57 224.569 665.507 224.569C664.49 224.569 663.497 224.87 662.526 225.471C661.555 226.072 660.677 226.857 659.891 227.828C659.105 228.753 658.389 229.793 657.742 230.948C657.141 232.104 656.632 233.236 656.216 234.346L642.349 272.55C641.332 275.277 640.546 278.097 639.992 281.009C639.437 283.921 639.275 286.579 639.506 288.982C639.784 291.34 640.546 293.281 641.794 294.807C643.042 296.332 644.961 297.095 647.549 297.095H697.194C698.95 297.095 700.383 297.465 701.493 298.204C702.602 298.897 703.457 299.845 704.058 301.047C704.659 302.249 705.029 303.659 705.167 305.276C705.306 306.894 705.283 308.628 705.098 310.477C704.913 312.279 704.567 314.151 704.058 316.093C703.596 317.988 703.041 319.86 702.394 321.709L685.337 368.511C684.367 371.238 683.096 374.058 681.524 376.97C679.952 379.882 678.173 382.54 676.185 384.943C674.197 387.301 672.025 389.265 669.667 390.837C667.31 392.362 664.837 393.125 662.249 393.125H545.972C543.384 393.125 541.465 392.362 540.217 390.837C538.969 389.265 538.23 387.301 537.999 384.943C537.767 382.54 537.929 379.882 538.484 376.97C539.039 374.058 539.801 371.238 540.772 368.511L548.815 346.462C549.786 343.735 551.034 340.938 552.559 338.072C554.131 335.16 555.91 332.525 557.898 330.168C559.886 327.764 562.058 325.8 564.416 324.274C566.773 322.749 569.246 321.986 571.834 321.986H610.177Z" fill="#CFCFCF"/>
<path d="M817.769 225.401C816.752 225.401 815.758 225.725 814.788 226.372C813.817 226.973 812.939 227.759 812.153 228.729C811.367 229.7 810.651 230.763 810.003 231.919C809.403 233.075 808.894 234.207 808.478 235.316L755.713 380.229C755.205 381.661 754.535 383.141 753.703 384.666C752.871 386.191 751.923 387.578 750.86 388.826C749.843 390.074 748.71 391.114 747.462 391.946C746.261 392.732 744.966 393.125 743.58 393.125H695.599C693.427 393.125 691.809 392.478 690.746 391.184C689.729 389.889 689.105 388.248 688.874 386.261C688.689 384.227 688.827 381.985 689.29 379.535C689.798 377.085 690.468 374.705 691.3 372.394L779.704 131.104C780.073 130.088 780.582 128.84 781.229 127.36C781.876 125.835 782.639 124.379 783.517 122.992C784.395 121.605 785.343 120.427 786.36 119.456C787.423 118.485 788.532 118 789.688 118C790.659 118 791.444 118.324 792.045 118.971C792.693 119.572 793.27 120.242 793.779 120.981L822.553 168.546C823.663 170.349 824.402 172.475 824.772 174.925C825.188 177.328 825.304 179.917 825.119 182.69C824.98 185.418 824.587 188.237 823.94 191.149C823.293 194.062 822.461 196.904 821.444 199.678C820.612 201.943 819.942 204.3 819.433 206.75C818.971 209.2 818.832 211.442 819.017 213.476C819.248 215.509 819.872 217.174 820.889 218.468C821.952 219.762 823.593 220.409 825.812 220.409H879.963C882.182 220.409 883.8 221.056 884.817 222.351C885.88 223.645 886.504 225.309 886.689 227.343C886.92 229.33 886.781 231.549 886.273 233.999C885.811 236.403 885.164 238.76 884.332 241.071L836.559 372.394C835.727 374.705 834.641 377.085 833.3 379.535C832.006 381.985 830.527 384.227 828.863 386.261C827.199 388.248 825.373 389.889 823.385 391.184C821.398 392.478 819.294 393.125 817.076 393.125H769.789C768.402 393.125 767.385 392.732 766.738 391.946C766.091 391.114 765.698 390.074 765.559 388.826C765.467 387.578 765.559 386.191 765.836 384.666C766.16 383.141 766.576 381.661 767.084 380.229L819.78 235.316C820.196 234.207 820.519 233.075 820.75 231.919C820.982 230.763 821.051 229.7 820.958 228.729C820.866 227.759 820.566 226.973 820.057 226.372C819.595 225.725 818.832 225.401 817.769 225.401Z" fill="#CFCFCF"/>
<path d="M986.741 380.229C986.232 381.661 985.562 383.141 984.73 384.666C983.898 386.191 982.95 387.578 981.887 388.826C980.87 390.074 979.738 391.114 978.49 391.946C977.288 392.732 975.994 393.125 974.607 393.125H844.879C843.493 393.125 842.476 392.732 841.829 391.946C841.181 391.114 840.812 390.305 840.719 389.52C840.673 388.688 840.65 388.11 840.65 387.786C840.65 386.815 840.765 385.683 840.997 384.389C841.274 383.048 841.667 381.661 842.175 380.229L869.286 305.692C869.794 304.259 870.464 302.78 871.296 301.255C872.128 299.729 873.053 298.343 874.07 297.095C875.133 295.8 876.265 294.76 877.467 293.975C878.715 293.143 880.033 292.727 881.419 292.727H944.515C945.902 292.727 947.196 292.334 948.398 291.548C949.646 290.716 950.778 289.676 951.795 288.428C952.859 287.18 953.806 285.793 954.638 284.268C955.47 282.742 956.14 281.263 956.649 279.83L972.943 234.97C973.359 233.86 973.659 232.82 973.844 231.85C974.029 230.879 974.122 230.024 974.122 229.284C974.122 228.961 974.075 228.498 973.983 227.897C973.937 227.25 973.659 226.626 973.151 226.025C972.689 225.378 971.926 225.055 970.863 225.055C969.153 225.055 967.604 225.817 966.217 227.343C964.831 228.822 963.536 230.81 962.334 233.306C961.133 235.756 960 238.552 958.937 241.695C957.874 244.839 956.788 248.074 955.678 251.402C954.615 254.684 953.506 257.897 952.35 261.04C951.194 264.183 949.946 267.003 948.606 269.499C947.265 271.949 945.786 273.937 944.168 275.462C942.551 276.941 940.725 277.681 938.691 277.681H886.897C885.51 277.681 884.493 277.288 883.846 276.502C883.199 275.67 882.829 274.838 882.737 274.006C882.644 273.174 882.598 272.55 882.598 272.134C882.598 271.256 882.714 270.192 882.945 268.944C883.222 267.65 883.615 266.286 884.124 264.854L895.495 233.722C896.003 232.289 896.65 230.81 897.436 229.284C898.268 227.759 899.193 226.372 900.209 225.124C901.273 223.876 902.405 222.859 903.607 222.073C904.855 221.241 906.172 220.825 907.559 220.825H1037.29C1038.67 220.825 1039.69 221.241 1040.34 222.073C1040.98 222.859 1041.35 223.668 1041.45 224.5C1041.54 225.332 1041.59 225.956 1041.59 226.372C1041.59 227.25 1041.45 228.337 1041.17 229.631C1040.94 230.925 1040.57 232.289 1040.06 233.722L986.741 380.229ZM911.303 388.688C912.366 388.688 913.36 388.387 914.285 387.786C915.255 387.139 916.134 386.353 916.919 385.429C917.705 384.458 918.399 383.395 919 382.239C919.647 381.084 920.178 379.974 920.594 378.911L946.595 307.495C946.965 306.386 947.242 305.346 947.427 304.375C947.612 303.404 947.705 302.595 947.705 301.948C947.705 301.578 947.658 301.093 947.566 300.492C947.52 299.845 947.242 299.221 946.734 298.62C946.272 298.019 945.509 297.719 944.446 297.719C943.429 297.719 942.435 298.019 941.464 298.62C940.54 299.221 939.685 300.007 938.899 300.978C938.113 301.902 937.397 302.942 936.75 304.098C936.149 305.253 935.663 306.386 935.293 307.495L909.292 378.911C908.876 379.974 908.553 381.014 908.322 382.031C908.137 383.002 908.044 383.834 908.044 384.527C908.044 384.851 908.068 385.313 908.114 385.914C908.206 386.515 908.507 387.139 909.015 387.786C909.524 388.387 910.286 388.688 911.303 388.688Z" fill="#CFCFCF"/>
<path d="M1178.66 273.521C1177.69 276.201 1176.42 278.998 1174.85 281.91C1173.28 284.822 1171.47 287.48 1169.44 289.884C1167.45 292.241 1165.28 294.206 1162.92 295.777C1160.57 297.303 1158.09 298.065 1155.5 298.065H1116.88C1114.25 298.065 1112.31 297.303 1111.06 295.777C1109.86 294.252 1109.14 292.287 1108.91 289.884C1108.68 287.48 1108.84 284.845 1109.4 281.979C1110 279.067 1110.78 276.248 1111.75 273.521C1114.16 266.91 1116.54 260.37 1118.9 253.898C1121.3 247.381 1123.73 240.84 1126.18 234.276C1126.55 233.213 1126.85 232.104 1127.08 230.948C1127.31 229.793 1127.38 228.753 1127.28 227.828C1127.19 226.857 1126.89 226.072 1126.38 225.471C1125.92 224.87 1125.18 224.569 1124.16 224.569C1123.15 224.569 1122.15 224.87 1121.18 225.471C1120.26 226.072 1119.4 226.857 1118.62 227.828C1117.83 228.753 1117.12 229.793 1116.47 230.948C1115.87 232.104 1115.38 233.213 1115.01 234.276L1066.13 368.511C1065.16 371.238 1063.89 374.058 1062.32 376.97C1060.75 379.882 1058.97 382.54 1056.98 384.943C1054.99 387.301 1052.82 389.265 1050.46 390.837C1048.1 392.362 1045.63 393.125 1043.04 393.125H1004.7C1002.11 393.125 1000.19 392.362 998.944 390.837C997.696 389.265 996.956 387.301 996.725 384.943C996.494 382.54 996.656 379.882 997.21 376.97C997.765 374.058 998.528 371.238 999.499 368.511L1044.5 244.885C1045.47 242.158 1046.74 239.361 1048.31 236.495C1049.88 233.583 1051.66 230.948 1053.65 228.591C1055.64 226.187 1057.81 224.223 1060.17 222.697C1062.52 221.172 1065 220.409 1067.59 220.409H1184C1186.64 220.409 1188.55 221.172 1189.76 222.697C1191 224.223 1191.74 226.187 1191.98 228.591C1192.21 230.948 1192.02 233.583 1191.42 236.495C1190.87 239.361 1190.1 242.158 1189.13 244.885L1178.66 273.521Z" fill="#CFCFCF"/>
<path d="M1294.59 373.711C1293.76 375.976 1292.67 378.333 1291.33 380.783C1290.04 383.233 1288.56 385.475 1286.9 387.509C1285.23 389.543 1283.41 391.207 1281.42 392.501C1279.43 393.795 1277.33 394.442 1275.11 394.442H1154.4C1152.18 394.442 1150.54 393.795 1149.47 392.501C1148.46 391.207 1147.83 389.543 1147.6 387.509C1147.42 385.475 1147.55 383.233 1148.02 380.783C1148.52 378.333 1149.19 375.976 1150.03 373.711L1197.8 242.389C1198.63 240.077 1199.69 237.72 1200.99 235.316C1202.33 232.867 1203.83 230.625 1205.5 228.591C1207.16 226.557 1208.99 224.893 1210.97 223.599C1212.96 222.304 1215.06 221.657 1217.28 221.657H1271.43C1273.65 221.657 1275.76 221.01 1277.74 219.716C1279.73 218.422 1281.56 216.781 1283.22 214.793C1284.89 212.759 1286.36 210.517 1287.66 208.067C1288.95 205.618 1290.02 203.26 1290.85 200.995C1291.82 198.268 1293.04 195.448 1294.52 192.536C1296 189.624 1297.67 186.804 1299.52 184.077C1301.36 181.304 1303.37 178.692 1305.55 176.242C1307.72 173.792 1310.01 171.666 1312.41 169.863L1375.85 122.299C1376.82 121.513 1377.84 120.82 1378.9 120.219C1380.01 119.618 1381.05 119.317 1382.02 119.317C1383.18 119.317 1383.92 119.803 1384.24 120.773C1384.57 121.744 1384.66 122.923 1384.52 124.31C1384.38 125.696 1384.08 127.152 1383.62 128.678C1383.2 130.157 1382.81 131.405 1382.44 132.422L1294.59 373.711ZM1275.8 226.719C1274.79 226.719 1273.79 227.042 1272.82 227.689C1271.9 228.29 1271.02 229.076 1270.19 230.047C1269.4 231.018 1268.68 232.081 1268.04 233.236C1267.44 234.392 1266.95 235.501 1266.58 236.564L1214.23 380.367C1213.82 381.477 1213.49 382.609 1213.26 383.765C1213.03 384.92 1212.96 385.983 1213.05 386.954C1213.15 387.925 1213.45 388.734 1213.95 389.381C1214.46 389.982 1215.23 390.282 1216.24 390.282C1217.31 390.282 1218.3 389.982 1219.22 389.381C1220.19 388.734 1221.07 387.925 1221.86 386.954C1222.64 385.983 1223.34 384.92 1223.94 383.765C1224.59 382.609 1225.12 381.477 1225.53 380.367L1277.88 236.564C1278.25 235.501 1278.55 234.392 1278.78 233.236C1279.01 232.081 1279.08 231.018 1278.99 230.047C1278.9 229.076 1278.6 228.29 1278.09 227.689C1277.63 227.042 1276.87 226.719 1275.8 226.719Z" fill="#CFCFCF"/>
</svg>
