<svg width="1744" height="497" viewBox="0 0 1744 497" fill="none" xmlns="http://www.w3.org/2000/svg">
<path d="M1203.75 0C1210.49 7.81237 1217.64 16.0469 1225.21 24.7034C1232.99 33.3872 1241.25 41.9773 1250 50.4737C1258.83 59.0868 1268.23 67.4584 1278.17 75.5884C1288.24 83.6288 1299.08 90.9838 1310.69 97.6534C1322.41 104.233 1334.95 109.818 1348.31 114.409C1361.66 118.999 1375.98 122.195 1391.28 123.998C1403.27 125.366 1416.24 125.708 1430.18 125.024C1444.21 124.457 1458.86 123.132 1474.14 121.05C1489.54 118.878 1505.33 116.129 1521.51 112.801C1537.69 109.473 1553.9 105.835 1570.16 101.889C1586.42 97.9417 1602.5 93.7614 1618.41 89.3476C1634.42 84.8443 1649.8 80.4658 1664.52 76.2122C1679.37 71.869 1693.45 67.7403 1706.76 63.826C1720.29 59.9389 1732.55 56.463 1743.55 53.3983C1728.72 58.4771 1711.96 64.1952 1693.29 70.5525C1674.7 77.0266 1655.43 83.935 1635.47 91.2777C1615.6 98.7371 1595.67 106.609 1575.69 114.894C1555.71 123.178 1536.95 131.832 1519.39 140.855C1501.83 149.878 1486.03 159.132 1471.98 168.616C1458.13 178.128 1447.25 187.872 1439.33 197.848C1432.68 206.102 1428.05 214.57 1425.44 223.251C1423.03 231.959 1422.08 240.754 1422.6 249.636C1423.19 258.635 1425.06 267.59 1428.19 276.502C1431.32 285.414 1435.2 294.214 1439.83 302.903C1444.57 311.503 1449.81 319.905 1455.56 328.111C1461.3 336.317 1467.08 344.214 1472.9 351.801C1479.17 359.972 1485.71 368.125 1492.51 376.26C1485.33 368.6 1477.72 360.253 1469.67 351.219C1461.63 342.185 1452.98 332.966 1443.72 323.563C1434.67 314.187 1424.91 304.981 1414.46 295.944C1404.09 287.025 1392.99 278.848 1381.16 271.416C1369.55 264.011 1357.06 257.645 1343.7 252.319C1330.54 247.021 1316.49 243.336 1301.55 241.264C1292.06 240.016 1277.49 240.721 1257.83 243.382C1238.17 246.042 1214.91 250.169 1188.04 255.764C1161.27 261.475 1131.5 268.367 1098.75 276.44C1066.08 284.63 1031.75 293.544 995.748 303.183C959.952 312.849 923.249 323.026 885.639 333.713C848.146 344.31 811.08 354.859 774.439 365.358C737.772 376.064 702.351 386.462 668.178 396.552C633.978 406.848 602.358 416.277 573.318 424.838C544.251 433.606 518.469 441.337 495.971 448.031C473.356 454.814 455.404 460.06 442.114 463.768C454.983 459.27 472.56 453.293 494.843 445.836C517.01 438.469 542.358 430.051 570.887 420.583C599.417 411.115 630.468 400.825 664.041 389.711C697.614 378.598 732.197 366.988 767.79 354.882C803.356 342.981 839.213 330.857 875.362 318.509C911.628 306.071 946.718 293.793 980.633 281.676C1014.67 269.469 1046.76 257.636 1076.91 246.179C1107.28 234.748 1134.23 224.076 1157.78 214.162C1181.54 204.276 1201.19 195.318 1216.73 187.289C1232.47 179.287 1242.74 172.61 1247.54 167.26C1255.65 158.253 1261.06 148.997 1263.78 139.491C1266.62 129.895 1267.41 120.292 1266.16 110.683C1265.02 100.984 1262.31 91.2877 1258.02 81.5942C1253.83 72.0174 1248.78 62.5383 1242.88 53.157C1236.97 43.7756 1230.52 34.6358 1223.5 25.7377C1216.61 16.7499 1210.02 8.17069 1203.75 0Z" fill="#CFCFCF"/>
<path d="M147.071 375.711C146.239 377.976 145.153 380.333 143.813 382.783C142.518 385.233 141.039 387.475 139.375 389.509C137.711 391.543 135.885 393.207 133.898 394.501C131.91 395.795 129.807 396.442 127.588 396.442H6.87416C4.65541 396.442 3.01446 395.795 1.95131 394.501C0.934384 393.207 0.310361 391.543 0.0792411 389.509C-0.105655 387.475 0.0330171 385.233 0.495257 382.783C1.00372 380.333 1.67397 377.976 2.506 375.711L50.2785 244.389C51.1105 242.077 52.1736 239.72 53.4679 237.316C54.8084 234.867 56.3107 232.625 57.9748 230.591C59.6388 228.557 61.4647 226.893 63.4523 225.599C65.4399 224.304 67.5431 223.657 69.7619 223.657H123.913C126.132 223.657 128.235 223.01 130.223 221.716C132.21 220.422 134.036 218.781 135.7 216.793C137.364 214.759 138.844 212.517 140.138 210.067C141.432 207.618 142.495 205.26 143.327 202.995C144.298 200.268 145.523 197.448 147.002 194.536C148.481 191.624 150.145 188.804 151.994 186.077C153.843 183.304 155.854 180.692 158.027 178.242C160.199 175.792 162.487 173.666 164.891 171.863L228.333 124.299C229.304 123.513 230.321 122.82 231.384 122.219C232.493 121.618 233.533 121.317 234.504 121.317C235.66 121.317 236.399 121.803 236.723 122.773C237.046 123.744 237.139 124.923 237 126.31C236.861 127.696 236.561 129.152 236.099 130.678C235.683 132.157 235.29 133.405 234.92 134.422L147.071 375.711ZM128.281 228.719C127.264 228.719 126.271 229.042 125.3 229.689C124.375 230.29 123.497 231.076 122.665 232.047C121.879 233.018 121.163 234.081 120.516 235.236C119.915 236.392 119.429 237.501 119.06 238.564L66.7111 382.367C66.2951 383.477 65.9715 384.609 65.7404 385.765C65.5093 386.92 65.4399 387.983 65.5324 388.954C65.6248 389.925 65.9253 390.734 66.4337 391.381C66.9422 391.982 67.7049 392.282 68.7218 392.282C69.785 392.282 70.7788 391.982 71.7033 391.381C72.674 390.734 73.5522 389.925 74.338 388.954C75.1238 387.983 75.8172 386.92 76.4181 385.765C77.0652 384.609 77.5968 383.477 78.0128 382.367L130.361 238.564C130.731 237.501 131.032 236.392 131.263 235.236C131.494 234.081 131.563 233.018 131.471 232.047C131.378 231.076 131.078 230.29 130.569 229.689C130.107 229.042 129.345 228.719 128.281 228.719Z" fill="#252525"/>
<path d="M296.976 382.229C296.467 383.661 295.797 385.141 294.965 386.666C294.133 388.191 293.185 389.578 292.122 390.826C291.105 392.074 289.973 393.114 288.725 393.946C287.523 394.732 286.229 395.125 284.842 395.125H155.114C153.728 395.125 152.711 394.732 152.064 393.946C151.416 393.114 151.047 392.305 150.954 391.52C150.908 390.688 150.885 390.11 150.885 389.786C150.885 388.815 151 387.683 151.232 386.389C151.509 385.048 151.902 383.661 152.41 382.229L179.521 307.692C180.029 306.259 180.699 304.78 181.531 303.255C182.363 301.729 183.288 300.343 184.305 299.095C185.368 297.8 186.5 296.76 187.702 295.975C188.95 295.143 190.268 294.727 191.654 294.727H254.75C256.137 294.727 257.431 294.334 258.633 293.548C259.881 292.716 261.013 291.676 262.03 290.428C263.094 289.18 264.041 287.793 264.873 286.268C265.705 284.742 266.375 283.263 266.884 281.83L283.178 236.97C283.594 235.86 283.894 234.82 284.079 233.85C284.264 232.879 284.357 232.024 284.357 231.284C284.357 230.961 284.31 230.498 284.218 229.897C284.172 229.25 283.894 228.626 283.386 228.025C282.924 227.378 282.161 227.055 281.098 227.055C279.388 227.055 277.839 227.817 276.452 229.343C275.066 230.822 273.771 232.81 272.569 235.306C271.368 237.756 270.235 240.552 269.172 243.695C268.109 246.839 267.023 250.074 265.913 253.402C264.85 256.684 263.741 259.897 262.585 263.04C261.43 266.183 260.181 269.003 258.841 271.499C257.5 273.949 256.021 275.937 254.403 277.462C252.786 278.941 250.96 279.681 248.926 279.681H197.132C195.745 279.681 194.728 279.288 194.081 278.502C193.434 277.67 193.064 276.838 192.972 276.006C192.879 275.174 192.833 274.55 192.833 274.134C192.833 273.256 192.949 272.192 193.18 270.944C193.457 269.65 193.85 268.286 194.359 266.854L205.73 235.722C206.238 234.289 206.885 232.81 207.671 231.284C208.503 229.759 209.428 228.372 210.444 227.124C211.508 225.876 212.64 224.859 213.842 224.073C215.09 223.241 216.407 222.825 217.794 222.825H347.522C348.908 222.825 349.925 223.241 350.572 224.073C351.22 224.859 351.589 225.668 351.682 226.5C351.774 227.332 351.82 227.956 351.82 228.372C351.82 229.25 351.682 230.337 351.404 231.631C351.173 232.925 350.804 234.289 350.295 235.722L296.976 382.229ZM221.538 390.688C222.601 390.688 223.595 390.387 224.52 389.786C225.49 389.139 226.369 388.353 227.154 387.429C227.94 386.458 228.634 385.395 229.235 384.239C229.882 383.084 230.413 381.974 230.829 380.911L256.83 309.495C257.2 308.386 257.477 307.346 257.662 306.375C257.847 305.404 257.94 304.595 257.94 303.948C257.94 303.578 257.893 303.093 257.801 302.492C257.755 301.845 257.477 301.221 256.969 300.62C256.507 300.019 255.744 299.719 254.681 299.719C253.664 299.719 252.67 300.019 251.699 300.62C250.775 301.221 249.92 302.007 249.134 302.978C248.348 303.902 247.632 304.942 246.985 306.098C246.384 307.253 245.898 308.386 245.528 309.495L219.527 380.911C219.111 381.974 218.788 383.014 218.557 384.031C218.372 385.002 218.279 385.834 218.279 386.527C218.279 386.851 218.303 387.313 218.349 387.914C218.441 388.515 218.742 389.139 219.25 389.786C219.759 390.387 220.521 390.688 221.538 390.688Z" fill="#252525"/>
<path d="M452.08 142.812C453.467 142.812 454.484 143.228 455.131 144.06C455.824 144.892 456.24 145.955 456.379 147.249C456.518 148.497 456.448 149.907 456.171 151.479C455.894 153.004 455.478 154.506 454.923 155.985L448.821 173.042C448.036 175.261 447.435 177.456 447.019 179.629C446.603 181.801 446.51 183.743 446.741 185.453C447.019 187.163 447.643 188.55 448.613 189.613C449.63 190.676 488.156 191.208 490.19 191.208C490.744 191.208 491.16 191.37 491.438 191.693C491.715 192.017 491.877 192.433 491.923 192.941C491.969 193.45 491.946 194.028 491.854 194.675C491.761 195.276 491.599 195.877 491.368 196.478C491.091 197.31 490.721 198.142 490.259 198.974C489.797 199.806 489.265 200.568 488.664 201.262C488.11 201.909 487.486 202.464 486.792 202.926C486.145 203.342 485.429 203.55 484.643 203.55L444.731 203.48C443.39 203.48 442.119 203.85 440.917 204.59C439.762 205.329 438.675 206.3 437.658 207.502C436.688 208.658 435.809 209.975 435.024 211.454C434.284 212.887 433.66 214.297 433.152 215.684L359.309 418.63C358.153 421.773 356.697 425.055 354.941 428.476C353.184 431.942 351.196 435.294 348.978 438.529C346.759 441.765 344.355 444.793 341.767 447.612C339.178 450.432 336.474 452.812 333.654 454.754L277.908 493.443C276.753 494.229 275.574 494.923 274.372 495.523C273.124 496.124 271.969 496.425 270.905 496.425C269.426 496.425 268.479 495.824 268.063 494.622C267.647 493.466 267.508 492.034 267.647 490.323C267.785 488.659 268.132 486.903 268.687 485.054C269.195 483.251 269.68 481.702 270.143 480.408L389.123 153.628C389.539 152.426 390.094 151.178 390.787 149.884C391.481 148.59 392.243 147.434 393.075 146.417C393.954 145.354 394.901 144.499 395.918 143.852C396.981 143.158 398.091 142.812 399.246 142.812H452.08Z" fill="#252525"/>
<path d="M528.014 382.229C527.506 383.661 526.835 385.141 526.003 386.666C525.171 388.191 524.224 389.578 523.161 390.826C522.144 392.074 521.011 393.114 519.763 393.946C518.561 394.732 517.267 395.125 515.88 395.125H386.153C384.766 395.125 383.749 394.732 383.102 393.946C382.455 393.114 382.085 392.305 381.993 391.52C381.946 390.688 381.923 390.11 381.923 389.786C381.923 388.815 382.039 387.683 382.27 386.389C382.547 385.048 382.94 383.661 383.449 382.229L410.559 307.692C411.068 306.259 411.738 304.78 412.57 303.255C413.402 301.729 414.326 300.343 415.343 299.095C416.406 297.8 417.539 296.76 418.741 295.975C419.989 295.143 421.306 294.727 422.693 294.727H485.789C487.175 294.727 488.47 294.334 489.671 293.548C490.919 292.716 492.052 291.676 493.069 290.428C494.132 289.18 495.08 287.793 495.912 286.268C496.744 284.742 497.414 283.263 497.922 281.83L514.216 236.97C514.632 235.86 514.933 234.82 515.118 233.85C515.303 232.879 515.395 232.024 515.395 231.284C515.395 230.961 515.349 230.498 515.256 229.897C515.21 229.25 514.933 228.626 514.424 228.025C513.962 227.378 513.199 227.055 512.136 227.055C510.426 227.055 508.877 227.817 507.491 229.343C506.104 230.822 504.81 232.81 503.608 235.306C502.406 237.756 501.274 240.552 500.21 243.695C499.147 246.839 498.061 250.074 496.952 253.402C495.889 256.684 494.779 259.897 493.624 263.04C492.468 266.183 491.22 269.003 489.879 271.499C488.539 273.949 487.06 275.937 485.442 277.462C483.824 278.941 481.998 279.681 479.964 279.681H428.17C426.784 279.681 425.767 279.288 425.12 278.502C424.473 277.67 424.103 276.838 424.01 276.006C423.918 275.174 423.872 274.55 423.872 274.134C423.872 273.256 423.987 272.192 424.218 270.944C424.496 269.65 424.889 268.286 425.397 266.854L436.768 235.722C437.277 234.289 437.924 232.81 438.71 231.284C439.542 229.759 440.466 228.372 441.483 227.124C442.546 225.876 443.679 224.859 444.88 224.073C446.128 223.241 447.446 222.825 448.833 222.825H578.56C579.947 222.825 580.964 223.241 581.611 224.073C582.258 224.859 582.628 225.668 582.72 226.5C582.813 227.332 582.859 227.956 582.859 228.372C582.859 229.25 582.72 230.337 582.443 231.631C582.212 232.925 581.842 234.289 581.333 235.722L528.014 382.229ZM452.577 390.688C453.64 390.688 454.634 390.387 455.558 389.786C456.529 389.139 457.407 388.353 458.193 387.429C458.979 386.458 459.672 385.395 460.273 384.239C460.92 383.084 461.452 381.974 461.868 380.911L487.869 309.495C488.238 308.386 488.516 307.346 488.701 306.375C488.886 305.404 488.978 304.595 488.978 303.948C488.978 303.578 488.932 303.093 488.839 302.492C488.793 301.845 488.516 301.221 488.007 300.62C487.545 300.019 486.782 299.719 485.719 299.719C484.702 299.719 483.709 300.019 482.738 300.62C481.813 301.221 480.958 302.007 480.172 302.978C479.387 303.902 478.67 304.942 478.023 306.098C477.422 307.253 476.937 308.386 476.567 309.495L450.566 380.911C450.15 381.974 449.826 383.014 449.595 384.031C449.41 385.002 449.318 385.834 449.318 386.527C449.318 386.851 449.341 387.313 449.387 387.914C449.48 388.515 449.78 389.139 450.289 389.786C450.797 390.387 451.56 390.688 452.577 390.688Z" fill="#252525"/>
<path d="M610.177 323.986C612.766 323.986 614.684 324.749 615.932 326.274C617.18 327.8 617.92 329.764 618.151 332.168C618.428 334.525 618.29 337.16 617.735 340.072C617.18 342.938 616.417 345.735 615.447 348.462L603.868 380.287C603.452 381.396 603.128 382.529 602.897 383.685C602.712 384.84 602.666 385.903 602.758 386.874C602.897 387.799 603.221 388.561 603.729 389.162C604.237 389.763 605 390.063 606.017 390.063C607.08 390.063 608.074 389.763 608.999 389.162C609.923 388.515 610.778 387.706 611.564 386.735C612.35 385.765 613.043 384.701 613.644 383.546C614.291 382.39 614.8 381.281 615.169 380.218L630.839 337.16C631.856 334.433 632.642 331.613 633.197 328.701C633.751 325.789 633.89 323.154 633.613 320.797C633.382 318.393 632.642 316.429 631.394 314.903C630.146 313.378 628.228 312.615 625.639 312.615H576.203C573.614 312.615 571.696 311.853 570.448 310.327C569.2 308.756 568.437 306.791 568.16 304.434C567.929 302.03 568.09 299.372 568.645 296.46C569.2 293.548 569.962 290.728 570.933 288.001L585.84 246.885C586.811 244.158 588.059 241.361 589.584 238.495C591.156 235.629 592.936 232.994 594.923 230.591C596.911 228.187 599.083 226.223 601.441 224.697C603.798 223.172 606.271 222.409 608.86 222.409H725.136C727.725 222.409 729.643 223.172 730.891 224.697C732.139 226.223 732.879 228.187 733.11 230.591C733.341 232.948 733.179 235.583 732.625 238.495C732.07 241.361 731.307 244.158 730.336 246.885C729.551 249.011 728.672 251.484 727.702 254.304C726.731 257.123 725.622 260.012 724.374 262.971C723.125 265.929 721.739 268.841 720.213 271.707C718.734 274.573 717.047 277.138 715.152 279.403C713.303 281.668 711.246 283.494 708.981 284.881C706.762 286.268 704.312 286.961 701.631 286.961H663.289C660.7 286.961 658.782 286.198 657.534 284.673C656.286 283.101 655.546 281.137 655.315 278.779C655.084 276.376 655.246 273.718 655.8 270.806C656.355 267.894 657.118 265.074 658.088 262.347L667.518 236.346C667.934 235.236 668.258 234.104 668.489 232.948C668.72 231.793 668.789 230.753 668.697 229.828C668.604 228.857 668.304 228.072 667.795 227.471C667.333 226.87 666.57 226.569 665.507 226.569C664.49 226.569 663.497 226.87 662.526 227.471C661.555 228.072 660.677 228.857 659.891 229.828C659.105 230.753 658.389 231.793 657.742 232.948C657.141 234.104 656.632 235.236 656.216 236.346L642.349 274.55C641.332 277.277 640.546 280.097 639.992 283.009C639.437 285.921 639.275 288.579 639.506 290.982C639.784 293.34 640.546 295.281 641.794 296.807C643.042 298.332 644.961 299.095 647.549 299.095H697.194C698.95 299.095 700.383 299.465 701.493 300.204C702.602 300.897 703.457 301.845 704.058 303.047C704.659 304.249 705.029 305.659 705.167 307.276C705.306 308.894 705.283 310.628 705.098 312.477C704.913 314.279 704.567 316.151 704.058 318.093C703.596 319.988 703.041 321.86 702.394 323.709L685.337 370.511C684.367 373.238 683.096 376.058 681.524 378.97C679.952 381.882 678.173 384.54 676.185 386.943C674.197 389.301 672.025 391.265 669.667 392.837C667.31 394.362 664.837 395.125 662.249 395.125H545.972C543.384 395.125 541.465 394.362 540.217 392.837C538.969 391.265 538.23 389.301 537.999 386.943C537.767 384.54 537.929 381.882 538.484 378.97C539.039 376.058 539.801 373.238 540.772 370.511L548.815 348.462C549.786 345.735 551.034 342.938 552.559 340.072C554.131 337.16 555.91 334.525 557.898 332.168C559.886 329.764 562.058 327.8 564.416 326.274C566.773 324.749 569.246 323.986 571.834 323.986H610.177Z" fill="#252525"/>
<path d="M817.769 227.401C816.752 227.401 815.758 227.725 814.788 228.372C813.817 228.973 812.939 229.759 812.153 230.729C811.367 231.7 810.651 232.763 810.003 233.919C809.403 235.075 808.894 236.207 808.478 237.316L755.713 382.229C755.205 383.661 754.535 385.141 753.703 386.666C752.871 388.191 751.923 389.578 750.86 390.826C749.843 392.074 748.71 393.114 747.462 393.946C746.261 394.732 744.966 395.125 743.58 395.125H695.599C693.427 395.125 691.809 394.478 690.746 393.184C689.729 391.889 689.105 390.248 688.874 388.261C688.689 386.227 688.827 383.985 689.29 381.535C689.798 379.085 690.468 376.705 691.3 374.394L779.704 133.104C780.073 132.088 780.582 130.84 781.229 129.36C781.876 127.835 782.639 126.379 783.517 124.992C784.395 123.605 785.343 122.427 786.36 121.456C787.423 120.485 788.532 120 789.688 120C790.659 120 791.444 120.324 792.045 120.971C792.693 121.572 793.27 122.242 793.779 122.981L822.553 170.546C823.663 172.349 824.402 174.475 824.772 176.925C825.188 179.328 825.304 181.917 825.119 184.69C824.98 187.418 824.587 190.237 823.94 193.149C823.293 196.062 822.461 198.904 821.444 201.678C820.612 203.943 819.942 206.3 819.433 208.75C818.971 211.2 818.832 213.442 819.017 215.476C819.248 217.509 819.872 219.174 820.889 220.468C821.952 221.762 823.593 222.409 825.812 222.409H879.963C882.182 222.409 883.8 223.056 884.817 224.351C885.88 225.645 886.504 227.309 886.689 229.343C886.92 231.33 886.781 233.549 886.273 235.999C885.811 238.403 885.164 240.76 884.332 243.071L836.559 374.394C835.727 376.705 834.641 379.085 833.3 381.535C832.006 383.985 830.527 386.227 828.863 388.261C827.199 390.248 825.373 391.889 823.385 393.184C821.398 394.478 819.294 395.125 817.076 395.125H769.789C768.402 395.125 767.385 394.732 766.738 393.946C766.091 393.114 765.698 392.074 765.559 390.826C765.467 389.578 765.559 388.191 765.836 386.666C766.16 385.141 766.576 383.661 767.084 382.229L819.78 237.316C820.196 236.207 820.519 235.075 820.75 233.919C820.982 232.763 821.051 231.7 820.958 230.729C820.866 229.759 820.566 228.973 820.057 228.372C819.595 227.725 818.832 227.401 817.769 227.401Z" fill="#252525"/>
<path d="M986.741 382.229C986.232 383.661 985.562 385.141 984.73 386.666C983.898 388.191 982.95 389.578 981.887 390.826C980.87 392.074 979.738 393.114 978.49 393.946C977.288 394.732 975.994 395.125 974.607 395.125H844.879C843.493 395.125 842.476 394.732 841.829 393.946C841.181 393.114 840.812 392.305 840.719 391.52C840.673 390.688 840.65 390.11 840.65 389.786C840.65 388.815 840.765 387.683 840.997 386.389C841.274 385.048 841.667 383.661 842.175 382.229L869.286 307.692C869.794 306.259 870.464 304.78 871.296 303.255C872.128 301.729 873.053 300.343 874.07 299.095C875.133 297.8 876.265 296.76 877.467 295.975C878.715 295.143 880.033 294.727 881.419 294.727H944.515C945.902 294.727 947.196 294.334 948.398 293.548C949.646 292.716 950.778 291.676 951.795 290.428C952.859 289.18 953.806 287.793 954.638 286.268C955.47 284.742 956.14 283.263 956.649 281.83L972.943 236.97C973.359 235.86 973.659 234.82 973.844 233.85C974.029 232.879 974.122 232.024 974.122 231.284C974.122 230.961 974.075 230.498 973.983 229.897C973.937 229.25 973.659 228.626 973.151 228.025C972.689 227.378 971.926 227.055 970.863 227.055C969.153 227.055 967.604 227.817 966.217 229.343C964.831 230.822 963.536 232.81 962.334 235.306C961.133 237.756 960 240.552 958.937 243.695C957.874 246.839 956.788 250.074 955.678 253.402C954.615 256.684 953.506 259.897 952.35 263.04C951.194 266.183 949.946 269.003 948.606 271.499C947.265 273.949 945.786 275.937 944.168 277.462C942.551 278.941 940.725 279.681 938.691 279.681H886.897C885.51 279.681 884.493 279.288 883.846 278.502C883.199 277.67 882.829 276.838 882.737 276.006C882.644 275.174 882.598 274.55 882.598 274.134C882.598 273.256 882.714 272.192 882.945 270.944C883.222 269.65 883.615 268.286 884.124 266.854L895.495 235.722C896.003 234.289 896.65 232.81 897.436 231.284C898.268 229.759 899.193 228.372 900.209 227.124C901.273 225.876 902.405 224.859 903.607 224.073C904.855 223.241 906.172 222.825 907.559 222.825H1037.29C1038.67 222.825 1039.69 223.241 1040.34 224.073C1040.98 224.859 1041.35 225.668 1041.45 226.5C1041.54 227.332 1041.59 227.956 1041.59 228.372C1041.59 229.25 1041.45 230.337 1041.17 231.631C1040.94 232.925 1040.57 234.289 1040.06 235.722L986.741 382.229ZM911.303 390.688C912.366 390.688 913.36 390.387 914.285 389.786C915.255 389.139 916.134 388.353 916.919 387.429C917.705 386.458 918.399 385.395 919 384.239C919.647 383.084 920.178 381.974 920.594 380.911L946.595 309.495C946.965 308.386 947.242 307.346 947.427 306.375C947.612 305.404 947.705 304.595 947.705 303.948C947.705 303.578 947.658 303.093 947.566 302.492C947.52 301.845 947.242 301.221 946.734 300.62C946.272 300.019 945.509 299.719 944.446 299.719C943.429 299.719 942.435 300.019 941.464 300.62C940.54 301.221 939.685 302.007 938.899 302.978C938.113 303.902 937.397 304.942 936.75 306.098C936.149 307.253 935.663 308.386 935.293 309.495L909.292 380.911C908.876 381.974 908.553 383.014 908.322 384.031C908.137 385.002 908.044 385.834 908.044 386.527C908.044 386.851 908.068 387.313 908.114 387.914C908.206 388.515 908.507 389.139 909.015 389.786C909.524 390.387 910.286 390.688 911.303 390.688Z" fill="#252525"/>
<path d="M1178.66 275.521C1177.69 278.201 1176.42 280.998 1174.85 283.91C1173.28 286.822 1171.47 289.48 1169.44 291.884C1167.45 294.241 1165.28 296.206 1162.92 297.777C1160.57 299.303 1158.09 300.065 1155.5 300.065H1116.88C1114.25 300.065 1112.31 299.303 1111.06 297.777C1109.86 296.252 1109.14 294.287 1108.91 291.884C1108.68 289.48 1108.84 286.845 1109.4 283.979C1110 281.067 1110.78 278.248 1111.75 275.521C1114.16 268.91 1116.54 262.37 1118.9 255.898C1121.3 249.381 1123.73 242.84 1126.18 236.276C1126.55 235.213 1126.85 234.104 1127.08 232.948C1127.31 231.793 1127.38 230.753 1127.28 229.828C1127.19 228.857 1126.89 228.072 1126.38 227.471C1125.92 226.87 1125.18 226.569 1124.16 226.569C1123.15 226.569 1122.15 226.87 1121.18 227.471C1120.26 228.072 1119.4 228.857 1118.62 229.828C1117.83 230.753 1117.12 231.793 1116.47 232.948C1115.87 234.104 1115.38 235.213 1115.01 236.276L1066.13 370.511C1065.16 373.238 1063.89 376.058 1062.32 378.97C1060.75 381.882 1058.97 384.54 1056.98 386.943C1054.99 389.301 1052.82 391.265 1050.46 392.837C1048.1 394.362 1045.63 395.125 1043.04 395.125H1004.7C1002.11 395.125 1000.19 394.362 998.944 392.837C997.696 391.265 996.956 389.301 996.725 386.943C996.494 384.54 996.656 381.882 997.21 378.97C997.765 376.058 998.528 373.238 999.499 370.511L1044.5 246.885C1045.47 244.158 1046.74 241.361 1048.31 238.495C1049.88 235.583 1051.66 232.948 1053.65 230.591C1055.64 228.187 1057.81 226.223 1060.17 224.697C1062.52 223.172 1065 222.409 1067.59 222.409H1184C1186.64 222.409 1188.55 223.172 1189.76 224.697C1191 226.223 1191.74 228.187 1191.98 230.591C1192.21 232.948 1192.02 235.583 1191.42 238.495C1190.87 241.361 1190.1 244.158 1189.13 246.885L1178.66 275.521Z" fill="#252525"/>
<path d="M1294.59 375.711C1293.76 377.976 1292.67 380.333 1291.33 382.783C1290.04 385.233 1288.56 387.475 1286.9 389.509C1285.23 391.543 1283.41 393.207 1281.42 394.501C1279.43 395.795 1277.33 396.442 1275.11 396.442H1154.4C1152.18 396.442 1150.54 395.795 1149.47 394.501C1148.46 393.207 1147.83 391.543 1147.6 389.509C1147.42 387.475 1147.55 385.233 1148.02 382.783C1148.52 380.333 1149.19 377.976 1150.03 375.711L1197.8 244.389C1198.63 242.077 1199.69 239.72 1200.99 237.316C1202.33 234.867 1203.83 232.625 1205.5 230.591C1207.16 228.557 1208.99 226.893 1210.97 225.599C1212.96 224.304 1215.06 223.657 1217.28 223.657H1271.43C1273.65 223.657 1275.76 223.01 1277.74 221.716C1279.73 220.422 1281.56 218.781 1283.22 216.793C1284.89 214.759 1286.36 212.517 1287.66 210.067C1288.95 207.618 1290.02 205.26 1290.85 202.995C1291.82 200.268 1293.04 197.448 1294.52 194.536C1296 191.624 1297.67 188.804 1299.52 186.077C1301.36 183.304 1303.37 180.692 1305.55 178.242C1307.72 175.792 1310.01 173.666 1312.41 171.863L1375.85 124.299C1376.82 123.513 1377.84 122.82 1378.9 122.219C1380.01 121.618 1381.05 121.317 1382.02 121.317C1383.18 121.317 1383.92 121.803 1384.24 122.773C1384.57 123.744 1384.66 124.923 1384.52 126.31C1384.38 127.696 1384.08 129.152 1383.62 130.678C1383.2 132.157 1382.81 133.405 1382.44 134.422L1294.59 375.711ZM1275.8 228.719C1274.79 228.719 1273.79 229.042 1272.82 229.689C1271.9 230.29 1271.02 231.076 1270.19 232.047C1269.4 233.018 1268.68 234.081 1268.04 235.236C1267.44 236.392 1266.95 237.501 1266.58 238.564L1214.23 382.367C1213.82 383.477 1213.49 384.609 1213.26 385.765C1213.03 386.92 1212.96 387.983 1213.05 388.954C1213.15 389.925 1213.45 390.734 1213.95 391.381C1214.46 391.982 1215.23 392.282 1216.24 392.282C1217.31 392.282 1218.3 391.982 1219.22 391.381C1220.19 390.734 1221.07 389.925 1221.86 388.954C1222.64 387.983 1223.34 386.92 1223.94 385.765C1224.59 384.609 1225.12 383.477 1225.53 382.367L1277.88 238.564C1278.25 237.501 1278.55 236.392 1278.78 235.236C1279.01 234.081 1279.08 233.018 1278.99 232.047C1278.9 231.076 1278.6 230.29 1278.09 229.689C1277.63 229.042 1276.87 228.719 1275.8 228.719Z" fill="#252525"/>
</svg>
